# xmcd
#
# Track frame offsets:
#	150
#	28456
#	46854
#	75791
#	100957
#	121266
#	147433
#	163858
#	198395
#	214900
#	231727
#	254840
#	293884
#
# Disc length: 4228 seconds
#
# Revision: 0
# Processed by: cddbd v1.5.2PL0 Copyright (c) Steve Scherf et al.
# Submitted via: audiograbber 1.83.01
#
DISCID=c810820d
DTITLE=Zappa and The Wild Irish Lasses - Folk Meets Blues  ( CD 2 )
DYEAR=2006
DGENRE=Blues and Folk
TTITLE0=Standing Outside The Fire
TTITLE1=I Saw The Light
TTITLE2=Men From Milwaukee
TTITLE3=New Rivertrain
TTITLE4=Nobody´s Pault But Mine
TTITLE5=Baby Boy
TTITLE6=I Wonder Where You Are
TTITLE7=My Baby Is Crying
TTITLE8=Our Home
TTITLE9=I Just Don´t Like This Kind Of Living
TTITLE10=The Rare Old Mountain Dew - Cripple Creek
TTITLE11=Edlauer Boogie
TTITLE12=Dixi Land
EXTD=
EXTT0=
EXTT1=
EXTT2=
EXTT3=
EXTT4=
EXTT5=
EXTT6=
EXTT7=
EXTT8=
EXTT9=
EXTT10=
EXTT11=
EXTT12=
PLAYORDER=
